<svg xmlns="http://www.w3.org/2000/svg" viewBox="0 0 900 480" fill="none" role="img" aria-label="ANKA Tech ADAS engineering visualization">
  <defs>
    <!-- Glow filters -->
    <filter id="glow-lg" x="-60%" y="-60%" width="220%" height="220%">
      <feGaussianBlur in="SourceAlpha" stdDeviation="10" result="b"/>
      <feFlood flood-color="#4BE6D8" flood-opacity=".5" result="c"/>
      <feComposite in="c" in2="b" operator="in" result="g"/>
      <feMerge><feMergeNode in="g"/><feMergeNode in="SourceGraphic"/></feMerge>
    </filter>
    <filter id="glow-md" x="-80%" y="-80%" width="260%" height="260%">
      <feGaussianBlur in="SourceAlpha" stdDeviation="5" result="b"/>
      <feFlood flood-color="#4BE6D8" flood-opacity=".55" result="c"/>
      <feComposite in="c" in2="b" operator="in" result="g"/>
      <feMerge><feMergeNode in="g"/><feMergeNode in="SourceGraphic"/></feMerge>
    </filter>
    <filter id="glow-sm" x="-120%" y="-120%" width="340%" height="340%">
      <feGaussianBlur in="SourceAlpha" stdDeviation="3" result="b"/>
      <feFlood flood-color="#4BE6D8" flood-opacity=".7" result="c"/>
      <feComposite in="c" in2="b" operator="in" result="g"/>
      <feMerge><feMergeNode in="g"/><feMergeNode in="SourceGraphic"/></feMerge>
    </filter>
    <filter id="blur-only">
      <feGaussianBlur stdDeviation="18"/>
    </filter>

    <!-- Gradients -->
    <radialGradient id="radar-fade" cx="0%" cy="50%" r="100%">
      <stop offset="0%"   stop-color="#4BE6D8" stop-opacity=".22"/>
      <stop offset="65%"  stop-color="#4BE6D8" stop-opacity=".06"/>
      <stop offset="100%" stop-color="#4BE6D8" stop-opacity="0"/>
    </radialGradient>

    <linearGradient id="car-top" x1="0" y1="0" x2="0" y2="1">
      <stop offset="0%"   stop-color="#D8EAED" stop-opacity=".95"/>
      <stop offset="100%" stop-color="#7AADB5" stop-opacity=".75"/>
    </linearGradient>

    <linearGradient id="car-window" x1="0" y1="0" x2="0" y2="1">
      <stop offset="0%"   stop-color="#4BE6D8" stop-opacity=".20"/>
      <stop offset="100%" stop-color="#1B7C83" stop-opacity=".35"/>
    </linearGradient>

    <radialGradient id="ground-glow" cx="50%" cy="0%" r="80%">
      <stop offset="0%"   stop-color="#4BE6D8" stop-opacity=".14"/>
      <stop offset="100%" stop-color="#4BE6D8" stop-opacity="0"/>
    </radialGradient>

    <linearGradient id="scan-grad" x1="0" y1="0" x2="0" y2="1">
      <stop offset="0%"   stop-color="#4BE6D8" stop-opacity="0"/>
      <stop offset="50%"  stop-color="#4BE6D8" stop-opacity=".32"/>
      <stop offset="100%" stop-color="#4BE6D8" stop-opacity="0"/>
    </linearGradient>

    <!-- Clip: left half only (for radar sectors) -->
    <clipPath id="left-half">
      <rect x="0" y="0" width="370" height="480"/>
    </clipPath>

    <!-- Clip: car area -->
    <clipPath id="full-frame">
      <rect x="0" y="0" width="900" height="480"/>
    </clipPath>

    <style>
      /* ── Radar pulse rings ── */
      .ring-1 { animation: ring-pulse 3.2s ease-out infinite; }
      .ring-2 { animation: ring-pulse 3.2s ease-out infinite .9s; }
      .ring-3 { animation: ring-pulse 3.2s ease-out infinite 1.8s; }

      @keyframes ring-pulse {
        0%   { r: 60;  opacity: .70; }
        100% { r: 320; opacity: 0;   }
      }

      /* ── Radar sector flash ── */
      .sector { animation: sector-breathe 4s ease-in-out infinite; }
      @keyframes sector-breathe {
        0%,100% { opacity: .55; }
        50%      { opacity: .85; }
      }

      /* ── Scan line ── */
      .scanline { animation: scanline-move 5s ease-in-out infinite; }
      @keyframes scanline-move {
        0%,100% { transform: translateY(-30px); opacity: 0; }
        20%      { opacity: 1; }
        80%      { opacity: .8; }
        99%      { transform: translateY(510px); opacity: 0; }
      }

      /* ── Detection boxes ── */
      .det-box { animation: det-flash 2.6s ease-in-out infinite; }
      .det-box-2 { animation: det-flash 2.6s ease-in-out infinite .7s; }
      .det-box-3 { animation: det-flash 2.6s ease-in-out infinite 1.3s; }
      @keyframes det-flash {
        0%,100% { opacity: .25; }
        40%,60%  { opacity: .90; }
      }

      /* ── Data particles ── */
      .p1 { animation: particle-flow 4.4s linear infinite; }
      .p2 { animation: particle-flow 4.4s linear infinite 1.1s; }
      .p3 { animation: particle-flow 4.4s linear infinite 2.2s; }
      .p4 { animation: particle-flow 4.4s linear infinite 3.3s; }
      @keyframes particle-flow {
        0%   { offset-distance: 0%;   opacity: 0; }
        8%   { opacity: 1; }
        88%  { opacity: .7; }
        100% { offset-distance: 100%; opacity: 0; }
      }

      /* ── Ground glow breathe ── */
      .ground-glow { animation: glow-breathe 3.8s ease-in-out infinite; }
      @keyframes glow-breathe {
        0%,100% { opacity: .55; }
        50%      { opacity: 1; }
      }

      /* ── HUD blink ── */
      .hud-dot { animation: hud-blink 2s step-end infinite; }
      @keyframes hud-blink {
        0%,49%  { opacity: 1; }
        50%,100% { opacity: .2; }
      }

      /* ── Label fade-in ── */
      .label-float { animation: label-fade 6s ease-in-out infinite; }
      .label-float-2 { animation: label-fade 6s ease-in-out infinite 2s; }
      .label-float-3 { animation: label-fade 6s ease-in-out infinite 4s; }
      @keyframes label-fade {
        0%,20%   { opacity: 0; transform: translateY(6px); }
        35%,70%  { opacity: .90; transform: translateY(0); }
        85%,100% { opacity: 0; transform: translateY(-4px); }
      }

      /* ── Wheel spin ── */
      .wheel-inner { animation: wheel-spin 1.8s linear infinite; transform-box: fill-box; transform-origin: center; }
      @keyframes wheel-spin {
        to { transform: rotate(360deg); }
      }
    </style>
  </defs>

  <!-- ══════════════════════════════════════
       BACKGROUND ELEMENTS
  ══════════════════════════════════════ -->

  <!-- Background grid dots -->
  <g opacity=".18" fill="#4BE6D8">
    <circle cx="60"  cy="60"  r="1.2"/><circle cx="150" cy="60"  r="1.2"/>
    <circle cx="240" cy="60"  r="1.2"/><circle cx="330" cy="60"  r="1.2"/>
    <circle cx="420" cy="60"  r="1.2"/><circle cx="510" cy="60"  r="1.2"/>
    <circle cx="600" cy="60"  r="1.2"/><circle cx="690" cy="60"  r="1.2"/>
    <circle cx="780" cy="60"  r="1.2"/><circle cx="870" cy="60"  r="1.2"/>
    <circle cx="60"  cy="140" r="1.2"/><circle cx="150" cy="140" r="1.2"/>
    <circle cx="240" cy="140" r="1.2"/><circle cx="330" cy="140" r="1.2"/>
    <circle cx="420" cy="140" r="1.2"/><circle cx="510" cy="140" r="1.2"/>
    <circle cx="600" cy="140" r="1.2"/><circle cx="690" cy="140" r="1.2"/>
    <circle cx="780" cy="140" r="1.2"/><circle cx="870" cy="140" r="1.2"/>
    <circle cx="60"  cy="220" r="1.2"/><circle cx="150" cy="220" r="1.2"/>
    <circle cx="240" cy="220" r="1.2"/><circle cx="330" cy="220" r="1.2"/>
    <circle cx="870" cy="220" r="1.2"/><circle cx="780" cy="220" r="1.2"/>
    <circle cx="690" cy="220" r="1.2"/><circle cx="60"  cy="300" r="1.2"/>
    <circle cx="150" cy="300" r="1.2"/><circle cx="870" cy="300" r="1.2"/>
    <circle cx="780" cy="300" r="1.2"/><circle cx="690" cy="300" r="1.2"/>
    <circle cx="600" cy="300" r="1.2"/>
  </g>

  <!-- Horizon line -->
  <line x1="0" y1="395" x2="900" y2="395" stroke="#4BE6D8" stroke-opacity=".10" stroke-width="1"/>

  <!-- Perspective road lines -->
  <g stroke="#4BE6D8" stroke-opacity=".12" stroke-width="1">
    <line x1="500" y1="395" x2="20"  y2="480"/>
    <line x1="500" y1="395" x2="160" y2="480"/>
    <line x1="500" y1="395" x2="300" y2="480"/>
    <line x1="500" y1="395" x2="700" y2="480"/>
    <line x1="500" y1="395" x2="780" y2="480"/>
    <line x1="500" y1="395" x2="880" y2="480"/>
  </g>

  <!-- Ground glow under car -->
  <ellipse cx="500" cy="410" rx="320" ry="28" fill="url(#ground-glow)" class="ground-glow"/>

  <!-- ══════════════════════════════════════
       RADAR / ADAS SECTORS (front = left)
  ══════════════════════════════════════ -->

  <!-- Radar origin: front sensor of car ~(238, 320) -->

  <!-- Wide sector fill (soft glow) -->
  <path d="M 238,320 L -40,80 A 1,1 0 0,1 -40,560 Z"
        fill="url(#radar-fade)"
        clip-path="url(#left-half)"
        class="sector"/>

  <!-- Sector arc lines -->
  <g stroke="#4BE6D8" stroke-opacity=".25" stroke-width="1" clip-path="url(#left-half)">
    <!-- Outer arc -->
    <path d="M 238,320 L 0,95"  />
    <path d="M 238,320 L 0,545"/>
    <!-- Arc curves at different ranges -->
    <path d="M 58,198 A 220,220 0 0 1 58,440" fill="none"/>
    <path d="M 8,130 A 320,320 0 0 1 8,510"   fill="none"/>
    <path d="M -42,50 A 440,440 0 0 1 -42,590" fill="none"/>
  </g>

  <!-- Pulse rings from sensor -->
  <circle cx="238" cy="320" r="60" stroke="#4BE6D8" stroke-width="1.5" stroke-opacity=".8" fill="none" class="ring-1" filter="url(#glow-sm)"/>
  <circle cx="238" cy="320" r="60" stroke="#4BE6D8" stroke-width="1.5" stroke-opacity=".8" fill="none" class="ring-2" filter="url(#glow-sm)"/>
  <circle cx="238" cy="320" r="60" stroke="#4BE6D8" stroke-width="1.5" stroke-opacity=".8" fill="none" class="ring-3" filter="url(#glow-sm)"/>

  <!-- Front sensor dot -->
  <circle cx="238" cy="320" r="5" fill="#4BE6D8" filter="url(#glow-md)"/>

  <!-- ── Detection boxes ── -->
  <!-- Object 1 (pedestrian zone) -->
  <g class="det-box" filter="url(#glow-sm)">
    <rect x="72" y="196" width="28" height="48" rx="2" stroke="#4BE6D8" stroke-width="1.5" fill="none"/>
    <line x1="72"  y1="196" x2="65"  y2="189" stroke="#4BE6D8" stroke-width="1" stroke-opacity=".7"/>
    <line x1="100" y1="196" x2="107" y2="189" stroke="#4BE6D8" stroke-width="1" stroke-opacity=".7"/>
    <text x="86" y="185" font-family="Inter,monospace" font-size="10" fill="#4BE6D8" text-anchor="middle" font-weight="700" letter-spacing=".06em">OBJ</text>
  </g>

  <!-- Object 2 (vehicle ahead) -->
  <g class="det-box-2" filter="url(#glow-sm)">
    <rect x="22" y="268" width="46" height="26" rx="2" stroke="#4BE6D8" stroke-width="1.5" fill="none"/>
    <line x1="22"  y1="268" x2="14"  y2="260" stroke="#4BE6D8" stroke-width="1" stroke-opacity=".7"/>
    <line x1="68"  y1="268" x2="76"  y2="260" stroke="#4BE6D8" stroke-width="1" stroke-opacity=".7"/>
    <text x="45" y="256" font-family="Inter,monospace" font-size="10" fill="#4BE6D8" text-anchor="middle" font-weight="700" letter-spacing=".06em">VEH</text>
  </g>

  <!-- Object 3 (crossing) -->
  <g class="det-box-3" filter="url(#glow-sm)">
    <rect x="118" y="294" width="24" height="36" rx="2" stroke="#2DC4BB" stroke-width="1.2" fill="none" stroke-opacity=".8"/>
    <text x="130" y="287" font-family="Inter,monospace" font-size="9" fill="#2DC4BB" text-anchor="middle" font-weight="700" letter-spacing=".05em" opacity=".80">PED</text>
  </g>

  <!-- ── LiDAR point cloud ── -->
  <g fill="#4BE6D8" filter="url(#glow-sm)">
    <circle cx="42"  cy="348" r="1.8" opacity=".65"/>
    <circle cx="58"  cy="332" r="1.5" opacity=".55"/>
    <circle cx="74"  cy="318" r="1.8" opacity=".70"/>
    <circle cx="96"  cy="308" r="1.5" opacity=".50"/>
    <circle cx="112" cy="342" r="1.8" opacity=".65"/>
    <circle cx="130" cy="326" r="1.5" opacity=".60"/>
    <circle cx="148" cy="312" r="1.8" opacity=".70"/>
    <circle cx="162" cy="358" r="1.5" opacity=".45"/>
    <circle cx="32"  cy="310" r="1.5" opacity=".55"/>
    <circle cx="18"  cy="335" r="1.8" opacity=".60"/>
    <circle cx="52"  cy="284" r="1.5" opacity=".50"/>
    <circle cx="88"  cy="276" r="1.8" opacity=".55"/>
    <circle cx="106" cy="258" r="1.5" opacity=".45"/>
    <circle cx="132" cy="272" r="1.8" opacity=".60"/>
    <circle cx="154" cy="264" r="1.5" opacity=".50"/>
    <circle cx="170" cy="348" r="1.5" opacity=".55"/>
    <circle cx="180" cy="296" r="1.8" opacity=".60"/>
    <circle cx="196" cy="276" r="1.5" opacity=".50"/>
  </g>

  <!-- ══════════════════════════════════════
       CAR BODY
  ══════════════════════════════════════ -->

  <!-- Shadow/ground shadow -->
  <ellipse cx="502" cy="400" rx="260" ry="12" fill="#000" opacity=".28"/>

  <!-- Main car body -->
  <path d="
    M 238,358
    L 238,332
    C 242,314 262,300 285,294
    L 388,275
    L 432,232
    Q 468,202 510,198
    L 616,198
    Q 654,200 674,222
    L 702,264
    L 748,282
    C 768,292 784,310 786,332
    L 786,358
    Z
  " fill="url(#car-top)" filter="url(#glow-lg)"/>

  <!-- Windshield -->
  <path d="
    M 432,232 Q 468,202 510,198
    L 540,198
    L 495,232
    Z
  " fill="url(#car-window)" stroke="#4BE6D8" stroke-width=".8" stroke-opacity=".30"/>

  <!-- Rear glass -->
  <path d="
    M 616,198 Q 654,200 674,222
    L 656,240
    L 598,240
    Z
  " fill="url(#car-window)" stroke="#4BE6D8" stroke-width=".8" stroke-opacity=".30"/>

  <!-- Roof highlight line -->
  <path d="M 540,198 L 616,198" stroke="#fff" stroke-opacity=".35" stroke-width="1.5"/>

  <!-- Door line -->
  <line x1="555" y1="200" x2="568" y2="356" stroke="#4BE6D8" stroke-opacity=".18" stroke-width=".8"/>

  <!-- Body side highlight -->
  <path d="M 290,295 L 748,284" stroke="#fff" stroke-opacity=".15" stroke-width="1.2"/>

  <!-- Lower body panel line -->
  <path d="M 290,340 L 778,340" stroke="#4BE6D8" stroke-opacity=".20" stroke-width=".8"/>

  <!-- Wheel arches -->
  <path d="M 278,358 A 62,24 0 0 1 402,358" fill="#0A2530" stroke="#4BE6D8" stroke-opacity=".30" stroke-width="1"/>
  <path d="M 632,358 A 62,24 0 0 1 756,358" fill="#0A2530" stroke="#4BE6D8" stroke-opacity=".30" stroke-width="1"/>

  <!-- Wheels (rear) -->
  <circle cx="694" cy="374" r="38" fill="#060F14" stroke="#2DC4BB" stroke-width="2" stroke-opacity=".60"/>
  <circle cx="694" cy="374" r="28" fill="none"   stroke="#4BE6D8" stroke-width="1" stroke-opacity=".25"/>
  <circle cx="694" cy="374" r="16" fill="#0A2A34" stroke="#4BE6D8" stroke-width="1.5" stroke-opacity=".55"/>
  <!-- Wheel spokes -->
  <g class="wheel-inner" style="transform-origin:694px 374px">
    <line x1="694" y1="358" x2="694" y2="350" stroke="#4BE6D8" stroke-opacity=".55" stroke-width="1.5"/>
    <line x1="694" y1="390" x2="694" y2="398" stroke="#4BE6D8" stroke-opacity=".55" stroke-width="1.5"/>
    <line x1="678" y1="374" x2="670" y2="374" stroke="#4BE6D8" stroke-opacity=".55" stroke-width="1.5"/>
    <line x1="710" y1="374" x2="718" y2="374" stroke="#4BE6D8" stroke-opacity=".55" stroke-width="1.5"/>
    <line x1="683" y1="363" x2="677" y2="357" stroke="#4BE6D8" stroke-opacity=".40" stroke-width="1.2"/>
    <line x1="705" y1="385" x2="711" y2="391" stroke="#4BE6D8" stroke-opacity=".40" stroke-width="1.2"/>
    <line x1="683" y1="385" x2="677" y2="391" stroke="#4BE6D8" stroke-opacity=".40" stroke-width="1.2"/>
    <line x1="705" y1="363" x2="711" y2="357" stroke="#4BE6D8" stroke-opacity=".40" stroke-width="1.2"/>
  </g>
  <circle cx="694" cy="374" r="6" fill="#4BE6D8" opacity=".70"/>

  <!-- Wheels (front) -->
  <circle cx="340" cy="374" r="38" fill="#060F14" stroke="#2DC4BB" stroke-width="2" stroke-opacity=".60"/>
  <circle cx="340" cy="374" r="28" fill="none"   stroke="#4BE6D8" stroke-width="1" stroke-opacity=".25"/>
  <circle cx="340" cy="374" r="16" fill="#0A2A34" stroke="#4BE6D8" stroke-width="1.5" stroke-opacity=".55"/>
  <g class="wheel-inner" style="transform-origin:340px 374px">
    <line x1="340" y1="358" x2="340" y2="350" stroke="#4BE6D8" stroke-opacity=".55" stroke-width="1.5"/>
    <line x1="340" y1="390" x2="340" y2="398" stroke="#4BE6D8" stroke-opacity=".55" stroke-width="1.5"/>
    <line x1="324" y1="374" x2="316" y2="374" stroke="#4BE6D8" stroke-opacity=".55" stroke-width="1.5"/>
    <line x1="356" y1="374" x2="364" y2="374" stroke="#4BE6D8" stroke-opacity=".55" stroke-width="1.5"/>
    <line x1="329" y1="363" x2="323" y2="357" stroke="#4BE6D8" stroke-opacity=".40" stroke-width="1.2"/>
    <line x1="351" y1="385" x2="357" y2="391" stroke="#4BE6D8" stroke-opacity=".40" stroke-width="1.2"/>
    <line x1="329" y1="385" x2="323" y2="391" stroke="#4BE6D8" stroke-opacity=".40" stroke-width="1.2"/>
    <line x1="351" y1="363" x2="357" y2="357" stroke="#4BE6D8" stroke-opacity=".40" stroke-width="1.2"/>
  </g>
  <circle cx="340" cy="374" r="6" fill="#4BE6D8" opacity=".70"/>

  <!-- Front headlight -->
  <rect x="234" y="310" width="10" height="20" rx="3" fill="#4BE6D8" opacity=".80" filter="url(#glow-sm)"/>
  <rect x="234" y="314" width="6"  height="12" rx="2" fill="#fff"   opacity=".60"/>

  <!-- Rear taillight -->
  <rect x="780" y="308" width="8" height="22" rx="2" fill="#FF4060" opacity=".70" filter="url(#glow-sm)"/>

  <!-- Front sensor / lidar housing -->
  <rect x="232" y="298" width="8" height="8" rx="2" fill="#4BE6D8" opacity=".90" filter="url(#glow-md)"/>

  <!-- Roof antenna -->
  <rect x="575" y="191" width="4" height="10" rx="2" fill="#4BE6D8" opacity=".60"/>
  <circle cx="577" cy="190" r="3" fill="#4BE6D8" opacity=".80" filter="url(#glow-sm)" class="hud-dot"/>

  <!-- ══════════════════════════════════════
       SCAN LINE
  ══════════════════════════════════════ -->
  <rect x="0" y="0" width="900" height="60" fill="url(#scan-grad)" class="scanline" clip-path="url(#full-frame)"/>

  <!-- ══════════════════════════════════════
       TELEMETRY DATA LINES (right side)
  ══════════════════════════════════════ -->

  <!-- Vertical data line right -->
  <line x1="840" y1="80" x2="840" y2="370" stroke="#4BE6D8" stroke-opacity=".18" stroke-width="1" stroke-dasharray="4 6"/>

  <!-- HUD telemetry labels right side -->
  <g font-family="Inter,ui-monospace,monospace" font-size="11" fill="#4BE6D8" font-weight="700" letter-spacing=".10em">
    <!-- GNSS -->
    <g class="label-float">
      <rect x="854" y="102" width="36" height="16" rx="3" fill="#4BE6D8" fill-opacity=".10" stroke="#4BE6D8" stroke-opacity=".30" stroke-width=".8"/>
      <text x="872" y="114" text-anchor="middle" fill="#4BE6D8">GNSS</text>
      <circle cx="848" cy="110" r="2.5" fill="#4BE6D8" class="hud-dot"/>
      <line x1="850" y1="110" x2="854" y2="110" stroke="#4BE6D8" stroke-opacity=".50" stroke-width=".8"/>
    </g>
    <!-- HIL -->
    <g class="label-float-2">
      <rect x="856" y="172" width="28" height="16" rx="3" fill="#4BE6D8" fill-opacity=".10" stroke="#4BE6D8" stroke-opacity=".30" stroke-width=".8"/>
      <text x="870" y="184" text-anchor="middle" fill="#4BE6D8">HIL</text>
      <circle cx="848" cy="180" r="2.5" fill="#4BE6D8" class="hud-dot"/>
      <line x1="850" y1="180" x2="856" y2="180" stroke="#4BE6D8" stroke-opacity=".50" stroke-width=".8"/>
    </g>
    <!-- CAN -->
    <g class="label-float-3">
      <rect x="855" y="242" width="30" height="16" rx="3" fill="#4BE6D8" fill-opacity=".10" stroke="#4BE6D8" stroke-opacity=".30" stroke-width=".8"/>
      <text x="870" y="254" text-anchor="middle" fill="#4BE6D8">CAN</text>
      <circle cx="848" cy="250" r="2.5" fill="#4BE6D8" class="hud-dot"/>
      <line x1="850" y1="250" x2="855" y2="250" stroke="#4BE6D8" stroke-opacity=".50" stroke-width=".8"/>
    </g>
  </g>

  <!-- Speed / data readout -->
  <g class="label-float" font-family="Inter,ui-monospace,monospace">
    <rect x="820" y="300" width="68" height="52" rx="6" fill="#071A20" fill-opacity=".85" stroke="#4BE6D8" stroke-opacity=".28" stroke-width="1"/>
    <text x="854" y="318" font-size="10" font-weight="700" letter-spacing=".12em" fill="#4BE6D8" text-anchor="middle">SPEED</text>
    <text x="854" y="338" font-size="18" font-weight="900" fill="#F3F8F9" text-anchor="middle">72</text>
    <text x="854" y="348" font-size="9"  font-weight="600" fill="#4BE6D8" text-anchor="middle" opacity=".70">km/h</text>
  </g>

  <!-- ══════════════════════════════════════
       BRANDING
  ══════════════════════════════════════ -->

  <!-- ANKA TECH text -->
  <g font-family="Inter,ui-sans-serif,system-ui,sans-serif" text-anchor="middle">
    <text x="512" y="455" font-size="28" font-weight="900" letter-spacing=".28em" fill="#F3F8F9" opacity=".88">ANKA</text>
    <text x="512" y="455" font-size="28" font-weight="900" letter-spacing=".28em" fill="#F3F8F9" opacity=".88" filter="url(#blur-only)" style="opacity:.18"/>
    <text x="556" y="471" font-size="12" font-weight="700" letter-spacing=".38em" fill="#4BE6D8" opacity=".80">TECH</text>
  </g>

  <!-- Decorative divider under text -->
  <line x1="430" y1="478" x2="590" y2="478" stroke="#4BE6D8" stroke-opacity=".22" stroke-width="1"/>
  <circle cx="512" cy="478" r="2" fill="#4BE6D8" opacity=".50"/>

  <!-- ADAS label top-left -->
  <g font-family="Inter,ui-monospace,monospace" class="label-float">
    <rect x="20" y="18" width="56" height="22" rx="4" fill="#4BE6D8" fill-opacity=".10" stroke="#4BE6D8" stroke-opacity=".35" stroke-width="1"/>
    <text x="48" y="33" font-size="11" font-weight="800" letter-spacing=".14em" fill="#4BE6D8" text-anchor="middle">ADAS</text>
  </g>

  <!-- Status top-right -->
  <g font-family="Inter,ui-monospace,monospace" class="label-float-2">
    <rect x="760" y="18" width="110" height="22" rx="4" fill="#4BE6D8" fill-opacity=".10" stroke="#4BE6D8" stroke-opacity=".35" stroke-width="1"/>
    <circle cx="776" cy="29" r="3.5" fill="#4BE6D8" class="hud-dot"/>
    <text x="822" y="33" font-size="10" font-weight="800" letter-spacing=".12em" fill="#4BE6D8" text-anchor="middle">SYSTEM READY</text>
  </g>
</svg>
